<?xml version="1.0" encoding="utf-8"?>
<!-- Generator: Adobe Illustrator 19.0.0, SVG Export Plug-In . SVG Version: 6.00 Build 0)  -->
<svg version="1.1" id="Layer_1" xmlns="http://www.w3.org/2000/svg" xmlns:xlink="http://www.w3.org/1999/xlink" x="0px" y="0px"
	 viewBox="-1521 745 512 512" style="enable-background:new -1521 745 512 512;" xml:space="preserve">
<style type="text/css">
	.st0{fill:#FFFFFF;}
</style>
<path class="st0" d="M-1034.5,973.7c3.3-1.4,5.5-4.6,5.5-8.2V948c0-3.6-2.2-6.9-5.5-8.2l-47.7-19.1c-7.4-3-7.4-13.5,0-16.4
	l47.7-19.1c3.3-1.4,5.5-4.6,5.5-8.2v-8.8c0-24.4-19.8-44.2-44.3-44.2h-162.3h-20.7h-8.8v8.8v336.3v8.9h8.8h20.7h162.4
	c24.4,0,44.2-19.8,44.2-44.3v-97.3c0-3.6-2.2-6.9-5.5-8.2l-47.7-19.1c-7.4-3-7.4-13.5,0-16.4L-1034.5,973.7z M-1294.5,824h-29.5
	c-32.5,0-59,26.5-59,59v59h-59c-32.5,0-59,26.5-59,59s26.5,59,59,59h59v59c0,32.5,26.5,59,59,59h29.5V824z M-1427.3,1001
	c0,8.1-6.6,14.8-14.8,14.8c-8.1,0-14.8-6.6-14.8-14.8s6.6-14.8,14.8-14.8C-1434,986.2-1427.3,992.9-1427.3,1001z"/>
</svg>
