<?xml version="1.0" encoding="utf-8"?>
<!-- Generator: Adobe Illustrator 19.0.0, SVG Export Plug-In . SVG Version: 6.00 Build 0)  -->
<svg version="1.1" id="Layer_1" xmlns="http://www.w3.org/2000/svg" xmlns:xlink="http://www.w3.org/1999/xlink" x="0px" y="0px"
	 viewBox="-493 495 512 512" style="enable-background:new -493 495 512 512;" xml:space="preserve">
<style type="text/css">
	.st0{fill:#333333;}
</style>
<path class="st0" d="M-6.5,723.7c3.3-1.4,5.5-4.6,5.5-8.2V698c0-3.6-2.2-6.9-5.5-8.2l-47.7-19.1c-7.4-3-7.4-13.5,0-16.4l47.7-19.1
	c3.3-1.4,5.5-4.6,5.5-8.2v-8.8c0-24.4-19.8-44.2-44.3-44.2h-162.3h-20.7h-8.8v8.8v336.3v8.9l8.8,0h20.7h162.4
	C-20.8,928-1,908.2-1,883.7v-97.3c0-3.6-2.2-6.9-5.5-8.2l-47.7-19.1c-7.4-3-7.4-13.5,0-16.4L-6.5,723.7z M-266.5,574H-296
	c-32.5,0-59,26.5-59,59v59h-59c-32.5,0-59,26.5-59,59s26.5,59,59,59h59v59c0,32.5,26.5,59,59,59h29.5V574z M-399.3,751
	c0,8.1-6.6,14.8-14.8,14.8c-8.1,0-14.8-6.6-14.8-14.8c0-8.2,6.6-14.8,14.8-14.8C-406,736.2-399.3,742.9-399.3,751z"/>
</svg>
