<?xml version="1.0" encoding="utf-8"?>
<!-- Generator: Adobe Illustrator 19.0.0, SVG Export Plug-In . SVG Version: 6.00 Build 0)  -->
<svg version="1.1" id="Layer_1" xmlns="http://www.w3.org/2000/svg" xmlns:xlink="http://www.w3.org/1999/xlink" x="0px" y="0px"
	 viewBox="-493 495 512 512" style="enable-background:new -493 495 512 512;" xml:space="preserve">
<style type="text/css">
	.st0{fill:#FFFFFF;}
</style>
<path class="st0" d="M-206.5,537.5c0-16.9-13.6-30.5-30.5-30.5s-30.5,13.6-30.5,30.5v231.3l-70-70c-11.9-11.9-31.3-11.9-43.2,0
	s-11.9,31.3,0,43.2l122,122c11.9,11.9,31.3,11.9,43.2,0l122-122c11.9-11.9,11.9-31.3,0-43.2s-31.3-11.9-43.2,0l-69.9,70
	L-206.5,537.5L-206.5,537.5z M-420,842.5c-33.6,0-61,27.4-61,61V934c0,33.6,27.4,61,61,61h366c33.6,0,61-27.4,61-61v-30.5
	c0-33.6-27.4-61-61-61h-96.7l-43.2,43.2c-23.8,23.8-62.4,23.8-86.3,0l-43.1-43.2H-420z M-69.3,895.9c12.7,0,22.9,10.2,22.9,22.9
	s-10.2,22.9-22.9,22.9s-22.9-10.2-22.9-22.9S-81.9,895.9-69.3,895.9z"/>
</svg>
