<?xml version="1.0" encoding="utf-8"?>
<!-- Generator: Adobe Illustrator 19.0.0, SVG Export Plug-In . SVG Version: 6.00 Build 0)  -->
<svg version="1.1" id="Layer_1" xmlns="http://www.w3.org/2000/svg" xmlns:xlink="http://www.w3.org/1999/xlink" x="0px" y="0px"
	 viewBox="-1457 745 512 512" style="enable-background:new -1457 745 512 512;" xml:space="preserve">
<style type="text/css">
	.st0{fill:#333333;}
</style>
<path class="st0" d="M-1201.6,815.2l-214.7,214.7c-23,23-23,60.3,0,83.3l73.6,73.6c11,11,26,17.2,41.7,17.2l96.9,0.1h8.7h197.5
	c16.3,0,29.5-13.2,29.5-29.5s-13.2-29.5-29.5-29.5h-114.2l120.3-120.3c23-23,23-60.3,0-83.3l-126.4-126.5
	C-1141.2,792.1-1178.5,792.1-1201.6,815.2L-1201.6,815.2z M-1195.4,1145.2h-8.7h-97l-73.6-73.6l114.8-114.8l126.5,126.5
	L-1195.4,1145.2z"/>
</svg>
