<?xml version="1.0" encoding="utf-8"?>
<!-- Generator: Adobe Illustrator 19.0.0, SVG Export Plug-In . SVG Version: 6.00 Build 0)  -->
<svg version="1.1" id="Layer_1" xmlns="http://www.w3.org/2000/svg" xmlns:xlink="http://www.w3.org/1999/xlink" x="0px" y="0px"
	 viewBox="-429 495 512 512" style="enable-background:new -429 495 512 512;" xml:space="preserve">
<style type="text/css">
	.st0{fill:#FFFFFF;}
</style>
<path class="st0" d="M-173.6,549.1l-233.3,233.3c-25,25-25,65.5,0,90.5l80,80c12,12,28.3,18.7,45.3,18.7l105.3,0.1h9.4H47.7
	c17.7,0,32-14.3,32-32s-14.3-32-32-32H-76.4L54.3,777c25-25,25-65.5,0-90.5L-83,549.1C-108,524.1-148.5,524.1-173.6,549.1
	L-173.6,549.1z M-166.9,907.7h-9.4h-105.4l-80-80L-237,703l137.4,137.4L-166.9,907.7z"/>
</svg>
